<svg width="256" height="256" viewBox="0 0 256 256" fill="none" xmlns="http://www.w3.org/2000/svg">
<style>
  rect {
	  fill: black;
  }
  path {
    fill: white;
  }

  @media (prefers-color-scheme: dark) {
    rect {
	    fill:white;
    }
    path {
      fill: black;
    } 
  }
</style>
<rect width="256" height="256" rx="60" fill="black"/>
<path d="M71 200H148.055C178.445 200 194 186.211 194 159.96V159.551C194 140.042 184.111 128.194 165.053 124.823V122.984C181.02 119.92 189.364 109.501 189.364 92.5457V92.035C189.364 68.9507 174.839 57 146.407 57H71V200ZM101.389 115.528V77.2243H137.342C151.867 77.2243 159.078 83.5571 159.078 96.0186V96.4271C159.078 109.093 151.867 115.528 137.342 115.528H101.389ZM101.389 179.674V134.118H138.269C154.236 134.118 162.168 141.676 162.168 156.487V156.896C162.168 172.013 154.236 179.674 138.269 179.674H101.389Z" fill="white"/>
</svg>
